<svg width="51" height="52" viewBox="0 0 51 52" fill="none" xmlns="http://www.w3.org/2000/svg">
<path d="M35.0625 20.3497L15.9375 9.32092" stroke="#6874DC" stroke-width="4.25" stroke-linecap="round" stroke-linejoin="round"/>
<path d="M44.625 34.3748V17.3748C44.6242 16.6295 44.4275 15.8975 44.0545 15.2523C43.6815 14.607 43.1454 14.0712 42.5 13.6985L27.625 5.19854C26.9789 4.82553 26.246 4.62915 25.5 4.62915C24.754 4.62915 24.0211 4.82553 23.375 5.19854L8.5 13.6985C7.85456 14.0712 7.31846 14.607 6.94548 15.2523C6.5725 15.8975 6.37576 16.6295 6.375 17.3748V34.3748C6.37576 35.1201 6.5725 35.8521 6.94548 36.4973C7.31846 37.1426 7.85456 37.6784 8.5 38.051L23.375 46.551C24.0211 46.9241 24.754 47.1204 25.5 47.1204C26.246 47.1204 26.9789 46.9241 27.625 46.551L42.5 38.051C43.1454 37.6784 43.6815 37.1426 44.0545 36.4973C44.4275 35.8521 44.6242 35.1201 44.625 34.3748Z" stroke="#6874DC" stroke-width="4.25" stroke-linecap="round" stroke-linejoin="round"/>
<path d="M6.94879 15.1647L25.5 25.8959L44.0513 15.1647" stroke="#6874DC" stroke-width="4.25" stroke-linecap="round" stroke-linejoin="round"/>
<path d="M25.5 47.2948V25.8748" stroke="#6874DC" stroke-width="4.25" stroke-linecap="round" stroke-linejoin="round"/>
</svg>
